<svg width="13" height="12" viewBox="0 0 13 12" fill="none" xmlns="http://www.w3.org/2000/svg">
<path d="M8.72727 10.8181V9.72723C8.72727 9.14857 8.4974 8.59362 8.08823 8.18445C7.67906 7.77528 7.12411 7.54541 6.54545 7.54541H2.18182C1.60316 7.54541 1.04821 7.77528 0.63904 8.18445C0.22987 8.59362 0 9.14857 0 9.72723V10.8181" stroke="#7B7B7B" stroke-linecap="round" stroke-linejoin="round"/>
<path d="M4.3637 5.36364C5.56869 5.36364 6.54552 4.3868 6.54552 3.18182C6.54552 1.97683 5.56869 1 4.3637 1C3.15872 1 2.18188 1.97683 2.18188 3.18182C2.18188 4.3868 3.15872 5.36364 4.3637 5.36364Z" stroke="#7B7B7B" stroke-linecap="round" stroke-linejoin="round"/>
<path d="M11.9999 10.8183V9.72736C11.9995 9.24394 11.8386 8.77433 11.5425 8.39226C11.2463 8.0102 10.8316 7.73731 10.3635 7.61646" stroke="#7B7B7B" stroke-linecap="round" stroke-linejoin="round"/>
<path d="M8.18188 1.0708C8.6512 1.19096 9.06718 1.46391 9.36423 1.84661C9.66129 2.2293 9.82253 2.69998 9.82253 3.18444C9.82253 3.66889 9.66129 4.13957 9.36423 4.52227C9.06718 4.90496 8.6512 5.17791 8.18188 5.29807" stroke="#7B7B7B" stroke-linecap="round" stroke-linejoin="round"/>
</svg>
